<svg xmlns="http://www.w3.org/2000/svg" xmlns:xlink="http://www.w3.org/1999/xlink" xml:space="preserve" version="1.1" style="shape-rendering:geometricPrecision;text-rendering:geometricPrecision;image-rendering:optimizeQuality;" viewBox="0 0 364 455" x="0px" y="0px" fill-rule="evenodd" clip-rule="evenodd"><defs><style type="text/css">
   
    .fil0 {fill:black}
    .fil1 {fill:black;fill-rule:nonzero}
   
  </style></defs><g><path class="fil0" d="M244 120l-90 90 -34 -34c-11,-11 -32,10 -21,21l47 47c4,4 12,4 16,0l103 -103c11,-11 -10,-32 -21,-21z"/><path class="fil1" d="M182 0c100,0 182,82 182,182 0,101 -81,182 -182,182 -100,0 -182,-81 -182,-182 0,-100 81,-182 182,-182zm0 25c-86,0 -157,71 -157,157 0,87 70,157 157,157 87,0 157,-70 157,-157 0,-87 -70,-157 -157,-157z"/></g><text x="0" y="379" fill="#000000" font-size="5px" font-weight="bold" font-family="'Helvetica Neue', Helvetica, Arial-Unicode, Arial, Sans-serif">Created by iejank</text><text x="0" y="384" fill="#000000" font-size="5px" font-weight="bold" font-family="'Helvetica Neue', Helvetica, Arial-Unicode, Arial, Sans-serif">from the Noun Project</text></svg>